<?xml version="1.0" encoding="utf-8"?>
<!-- Generator: Adobe Illustrator 22.1.0, SVG Export Plug-In . SVG Version: 6.00 Build 0)  -->
<svg version="1.1" id="Layer_1" xmlns="http://www.w3.org/2000/svg" xmlns:xlink="http://www.w3.org/1999/xlink" x="0px" y="0px"
	 viewBox="0 0 612 792" style="enable-background:new 0 0 612 792;" xml:space="preserve">
<style type="text/css">
	.st0{opacity:0.1;fill:#FFDE11;enable-background:new    ;}
	.st1{fill:#FFFFFF;stroke:#010101;stroke-width:0.25;stroke-miterlimit:10;}
	.st2{fill:#FFFFFF;}
	.st3{fill:#010101;}
	.st4{font-family:'MyriadPro-Regular';}
	.st5{font-size:6.5247px;}
	.st6{fill:#595A5C;stroke:#010101;stroke-width:0.25;stroke-miterlimit:10;}
	.st7{fill:none;stroke:#010101;stroke-miterlimit:10;}
	.st8{fill:#6C88C4;}
	.st9{fill:none;stroke:#595A5C;stroke-width:0.25;stroke-miterlimit:10;}
	.st10{fill:none;stroke:#595A5C;stroke-width:0.25;stroke-miterlimit:10;stroke-dasharray:0.9948,0.9948;}
	.st11{fill:#2E368F;}
	.st12{fill:none;stroke:#010101;stroke-width:0.25;stroke-miterlimit:10;}
	.st13{fill:none;stroke:#EC2227;stroke-width:2;stroke-miterlimit:10;}
	.st14{fill:none;stroke:#EC2227;stroke-width:2;stroke-miterlimit:10;stroke-dasharray:3.0307,3.0307;}
	.st15{fill:none;}
	.st16{font-size:11px;}
	.st17{fill:none;stroke:#010101;stroke-width:1.5;stroke-miterlimit:10;}
	.st18{font-size:12px;}
</style>
<rect x="-0.1" y="11.2" class="st0" width="612.1" height="153"/>
<path class="st1" d="M533.1,164.2H85c-10.2,0-18.4-8.3-18.4-18.4V48.7c0-10.2,8.3-18.4,18.4-18.4h448c10.2,0,18.4,8.3,18.4,18.4
	v97.1C551.5,155.9,543.2,164.2,533.1,164.2z"/>
<rect x="359.7" y="142.1" class="st2" width="155.2" height="8.1"/>
<rect x="358.3" y="115.3" class="st2" width="155.2" height="8.3"/>
<rect x="357.7" y="87" class="st2" width="155.2" height="9.1"/>
<text transform="matrix(1 0 0 1 517.6768 121.1387)" class="st3 st4 st5">Bins</text>
<text transform="matrix(1 0 0 1 518.4014 148.7012)" class="st3 st4 st5">Peaks</text>
<g>
	<g>
		<path class="st3" d="M356.2,62.3c0-1.5,0.8-2.4,2-2.4s2,0.9,2,2.4s-0.8,2.5-2,2.5S356.2,63.8,356.2,62.3z M359.6,62.3
			c0-1.2-0.6-1.9-1.4-1.9s-1.4,0.7-1.4,1.9s0.6,2,1.4,2C359.1,64.3,359.6,63.5,359.6,62.3z M357.9,64.7h0.6c0.2,0.5,0.7,0.8,1.2,0.8
			c0.2,0,0.4,0,0.5-0.1l0.1,0.5c-0.1,0.1-0.4,0.1-0.7,0.1C358.8,65.9,358.2,65.4,357.9,64.7z"/>
		<path class="st3" d="M360.7,61.2h0.6l0.7,2c0.1,0.3,0.2,0.7,0.3,1l0,0c0.1-0.3,0.2-0.7,0.3-1l0.7-2h0.6l-1.2,3.5H362L360.7,61.2z"
			/>
		<path class="st3" d="M364.4,63.8c0-0.8,0.7-1.2,2.2-1.3c0-0.5-0.2-0.9-0.7-0.9c-0.4,0-0.8,0.2-1.1,0.4l-0.2-0.4
			c0.3-0.2,0.8-0.5,1.4-0.5c0.9,0,1.2,0.6,1.2,1.4v2.2h-0.5v-0.4l0,0c-0.3,0.3-0.7,0.5-1.2,0.5C364.9,64.8,364.4,64.4,364.4,63.8z
			 M366.6,63.8v-1c-1.2,0.1-1.6,0.4-1.6,0.9c0,0.4,0.3,0.6,0.6,0.6C366,64.3,366.2,64.1,366.6,63.8z"/>
		<path class="st3" d="M368.3,64v-4.5h0.6V64c0,0.2,0.1,0.3,0.2,0.3h0.1l0.1,0.5c-0.1,0-0.2,0.1-0.3,0.1
			C368.5,64.8,368.3,64.5,368.3,64z"/>
		<path class="st3" d="M370.1,63.4v-2.2h0.6v2.2c0,0.7,0.2,0.9,0.7,0.9c0.4,0,0.6-0.2,0.9-0.6v-2.5h0.6v3.5h-0.5l-0.1-0.6l0,0
			c-0.3,0.4-0.7,0.6-1.2,0.6C370.4,64.8,370.1,64.3,370.1,63.4z"/>
		<path class="st3" d="M373.8,62.9c0-1.1,0.8-1.9,1.6-1.9c0.9,0,1.4,0.6,1.4,1.7c0,0.1,0,0.3,0,0.3h-2.4c0,0.7,0.5,1.2,1.2,1.2
			c0.3,0,0.6-0.1,0.9-0.3l0.2,0.4c-0.3,0.2-0.7,0.4-1.2,0.4C374.6,64.8,373.8,64.1,373.8,62.9z M376.3,62.7c0-0.7-0.3-1.1-0.9-1.1
			c-0.5,0-0.9,0.4-1,1.1H376.3z"/>
		<path class="st3" d="M377.3,64.3l0.3-0.4c0.3,0.2,0.6,0.4,1,0.4c0.5,0,0.7-0.2,0.7-0.5c0-0.4-0.4-0.5-0.8-0.7
			c-0.5-0.2-1.1-0.4-1.1-1s0.5-1,1.2-1c0.4,0,0.8,0.2,1.1,0.4l-0.3,0.4c-0.2-0.2-0.5-0.3-0.8-0.3c-0.4,0-0.6,0.2-0.6,0.5
			s0.4,0.5,0.8,0.6c0.5,0.2,1.1,0.4,1.1,1.1c0,0.6-0.5,1-1.3,1C378.1,64.8,377.6,64.6,377.3,64.3z"/>
		<path class="st3" d="M381.8,61.2h0.5h1.3v0.5h-1.8V61.2z M382.3,60.6c0-0.7,0.3-1.2,1-1.2c0.2,0,0.4,0.1,0.6,0.1l-0.1,0.5
			c-0.1-0.1-0.3-0.1-0.4-0.1c-0.3,0-0.5,0.2-0.5,0.7v4.1h-0.6V60.6z"/>
		<path class="st3" d="M384,62.9c0-1.2,0.8-1.9,1.6-1.9c0.9,0,1.6,0.7,1.6,1.9s-0.8,1.8-1.6,1.8C384.8,64.8,384,64.1,384,62.9z
			 M386.7,62.9c0-0.8-0.4-1.4-1-1.4s-1,0.5-1,1.4s0.4,1.3,1,1.3C386.3,64.3,386.7,63.8,386.7,62.9z"/>
		<path class="st3" d="M388.2,61.2h0.5l0.1,0.6l0,0c0.2-0.4,0.6-0.7,1-0.7c0.2,0,0.3,0,0.4,0.1l-0.1,0.5c-0.1,0-0.2-0.1-0.3-0.1
			c-0.3,0-0.7,0.2-0.9,0.8v2.3h-0.6v-3.5H388.2z"/>
		<path class="st3" d="M392.2,59.9h0.6v2h2.2v-2h0.6v4.8H395v-2.2h-2.2v2.2h-0.6L392.2,59.9L392.2,59.9z"/>
		<path class="st3" d="M396.8,60.1c0-0.2,0.2-0.4,0.4-0.4c0.2,0,0.4,0.2,0.4,0.4s-0.2,0.4-0.4,0.4S396.8,60.3,396.8,60.1z
			 M396.9,61.2h0.6v3.5h-0.6V61.2z"/>
		<path class="st3" d="M398.4,65.4c0-0.3,0.2-0.6,0.5-0.8l0,0c-0.2-0.1-0.3-0.3-0.3-0.6s0.2-0.5,0.4-0.7l0,0
			c-0.2-0.2-0.5-0.5-0.5-0.9c0-0.8,0.6-1.3,1.3-1.3c0.2,0,0.4,0,0.5,0.1h1.2v0.5h-0.7c0.2,0.2,0.3,0.4,0.3,0.7
			c0,0.8-0.6,1.2-1.3,1.2c-0.2,0-0.4,0-0.5-0.1c-0.1,0.1-0.2,0.2-0.2,0.4s0.1,0.4,0.6,0.4h0.7c0.8,0,1.2,0.3,1.2,0.8
			c0,0.7-0.7,1.2-1.8,1.2C399,66.3,398.4,66,398.4,65.4z M401.1,65.2c0-0.3-0.2-0.4-0.7-0.4h-0.6c-0.1,0-0.3,0-0.5-0.1
			c-0.3,0.2-0.4,0.4-0.4,0.6c0,0.4,0.4,0.6,1,0.6C400.6,65.9,401.1,65.6,401.1,65.2z M400.6,62.3c0-0.5-0.3-0.8-0.7-0.8
			s-0.7,0.3-0.7,0.8s0.3,0.8,0.7,0.8S400.6,62.9,400.6,62.3z"/>
		<path class="st3" d="M402.3,59.5h0.6v1.4v0.7c0.3-0.3,0.7-0.6,1.2-0.6c0.7,0,1.1,0.5,1.1,1.4v2.2h-0.6v-2.2c0-0.7-0.2-0.9-0.7-0.9
			c-0.4,0-0.6,0.2-1,0.5v2.6h-0.6V59.5z"/>
		<path class="st3" d="M407.3,64.3l0.3-0.4c0.3,0.2,0.6,0.4,1,0.4c0.5,0,0.7-0.2,0.7-0.5c0-0.4-0.4-0.5-0.8-0.7
			c-0.5-0.2-1.1-0.4-1.1-1s0.5-1,1.2-1c0.4,0,0.8,0.2,1.1,0.4l-0.3,0.4c-0.2-0.2-0.5-0.3-0.8-0.3c-0.4,0-0.6,0.2-0.6,0.5
			s0.4,0.5,0.8,0.6c0.5,0.2,1.1,0.4,1.1,1.1c0,0.6-0.5,1-1.3,1C408.2,64.8,407.7,64.6,407.3,64.3z"/>
		<path class="st3" d="M410.9,63.6v-1.9h-0.5v-0.5h0.6l0.1-1h0.5v1h1v0.5h-1v2c0,0.4,0.1,0.7,0.5,0.7c0.1,0,0.3,0,0.4-0.1l0.1,0.4
			c-0.2,0.1-0.4,0.1-0.7,0.1C411.1,64.8,410.9,64.3,410.9,63.6z"/>
		<path class="st3" d="M413,63.8c0-0.8,0.7-1.2,2.2-1.3c0-0.5-0.2-0.9-0.7-0.9c-0.4,0-0.8,0.2-1.1,0.4l-0.2-0.4
			c0.3-0.2,0.8-0.5,1.4-0.5c0.9,0,1.2,0.6,1.2,1.4v2.2h-0.5v-0.4l0,0c-0.3,0.3-0.7,0.5-1.2,0.5C413.4,64.8,413,64.4,413,63.8z
			 M415.2,63.8v-1c-1.2,0.1-1.6,0.4-1.6,0.9c0,0.4,0.3,0.6,0.6,0.6C414.5,64.3,414.8,64.1,415.2,63.8z"/>
		<path class="st3" d="M417,63.6v-1.9h-0.5v-0.5h0.6l0.1-1h0.5v1h1v0.5h-1v2c0,0.4,0.1,0.7,0.5,0.7c0.1,0,0.3,0,0.4-0.1l0.1,0.4
			c-0.2,0.1-0.4,0.1-0.7,0.1C417.2,64.8,417,64.3,417,63.6z"/>
		<path class="st3" d="M419.1,62.9c0-1.1,0.8-1.9,1.6-1.9c0.9,0,1.4,0.6,1.4,1.7c0,0.1,0,0.3,0,0.3h-2.4c0,0.7,0.5,1.2,1.2,1.2
			c0.3,0,0.6-0.1,0.9-0.3l0.2,0.4c-0.3,0.2-0.7,0.4-1.2,0.4C419.8,64.8,419.1,64.1,419.1,62.9z M421.5,62.7c0-0.7-0.3-1.1-0.9-1.1
			c-0.5,0-0.9,0.4-1,1.1H421.5z"/>
	</g>
</g>
<rect x="358.3" y="115.3" class="st1" width="15.5" height="8.3"/>
<rect x="373.8" y="115.3" class="st1" width="15.5" height="8.3"/>
<rect x="389.3" y="115.3" class="st6" width="15.5" height="8.3"/>
<rect x="404.8" y="115.3" class="st6" width="15.5" height="8.3"/>
<rect x="420.3" y="115.3" class="st1" width="15.5" height="8.3"/>
<rect x="435.9" y="115.3" class="st6" width="15.5" height="8.3"/>
<rect x="451.4" y="115.3" class="st1" width="15.5" height="8.3"/>
<rect x="466.9" y="115.3" class="st6" width="15.5" height="8.3"/>
<rect x="482.4" y="115.3" class="st6" width="15.5" height="8.3"/>
<rect x="497.9" y="115.3" class="st1" width="15.5" height="8.3"/>
<g>
	<g>
		<line class="st7" x1="383.9" y1="101.6" x2="383.9" y2="106.2"/>
		<g>
			<path class="st3" d="M383.9,112.2c-1.1-2.8-2.9-6.4-4.8-8.5l4.8,1.7l4.8-1.7C386.7,105.9,384.9,109.4,383.9,112.2z"/>
		</g>
	</g>
</g>
<g>
	<g>
		<path class="st3" d="M390.6,104.8h1.3c1.6,0,2.5,0.9,2.5,2.6s-0.9,2.6-2.4,2.6h-1.3v-5.2H390.6z M391.9,109.5
			c1.2,0,1.8-0.8,1.8-2.1s-0.6-2.1-1.8-2.1h-0.6v4.1h0.6V109.5z"/>
		<path class="st3" d="M395.2,108.1c0-1.3,0.9-2,1.7-2c1,0,1.5,0.7,1.5,1.8c0,0.1,0,0.3,0,0.4h-2.6c0,0.8,0.5,1.4,1.3,1.4
			c0.4,0,0.7-0.1,1-0.3l0.2,0.4c-0.3,0.2-0.8,0.4-1.3,0.4C396,110.1,395.2,109.4,395.2,108.1z M397.9,107.8c0-0.8-0.3-1.2-1-1.2
			c-0.5,0-1,0.4-1.1,1.2H397.9z"/>
		<path class="st3" d="M399.5,108.8v-2.1H399v-0.5h0.6l0.1-1.1h0.5v1.1h1.1v0.5h-1.1v2.2c0,0.5,0.2,0.7,0.6,0.7
			c0.1,0,0.3-0.1,0.4-0.1l0.1,0.5c-0.2,0.1-0.5,0.1-0.7,0.1C399.8,110.1,399.5,109.6,399.5,108.8z"/>
		<path class="st3" d="M401.8,108.1c0-1.3,0.9-2,1.7-2c1,0,1.5,0.7,1.5,1.8c0,0.1,0,0.3,0,0.4h-2.6c0,0.8,0.5,1.4,1.3,1.4
			c0.4,0,0.7-0.1,1-0.3l0.2,0.4c-0.3,0.2-0.8,0.4-1.3,0.4C402.7,110.1,401.8,109.4,401.8,108.1z M404.5,107.8c0-0.8-0.3-1.2-1-1.2
			c-0.5,0-1,0.4-1.1,1.2H404.5z"/>
		<path class="st3" d="M405.8,108.1c0-1.3,0.9-2,1.9-2c0.5,0,0.9,0.2,1.1,0.5l-0.3,0.4c-0.2-0.2-0.5-0.3-0.8-0.3
			c-0.7,0-1.2,0.6-1.2,1.5s0.5,1.5,1.2,1.5c0.4,0,0.7-0.2,0.9-0.4l0.3,0.4c-0.3,0.3-0.8,0.5-1.3,0.5
			C406.6,110.1,405.8,109.4,405.8,108.1z"/>
		<path class="st3" d="M409.8,108.8v-2.1h-0.6v-0.5h0.6l0.1-1.1h0.5v1.1h1.1v0.5h-1.1v2.2c0,0.5,0.2,0.7,0.6,0.7
			c0.1,0,0.3-0.1,0.4-0.1l0.1,0.5c-0.2,0.1-0.5,0.1-0.7,0.1C410.1,110.1,409.8,109.6,409.8,108.8z"/>
		<path class="st3" d="M413.9,104.9c0-0.3,0.2-0.4,0.5-0.4s0.5,0.2,0.5,0.4s-0.2,0.4-0.5,0.4C414.1,105.3,413.9,105.2,413.9,104.9z
			 M414,106.1h0.7v3.9H414V106.1z"/>
		<path class="st3" d="M416,106.1h0.5l0.1,0.6l0,0c0.4-0.4,0.8-0.7,1.3-0.7c0.8,0,1.2,0.5,1.2,1.5v2.5h-0.7v-2.4c0-0.7-0.2-1-0.7-1
			c-0.4,0-0.7,0.2-1.1,0.6v2.8H416V106.1z"/>
		<path class="st3" d="M420,108.1c0-1.3,0.8-2,1.7-2c0.5,0,0.7,0.2,1.1,0.4v-0.7v-1.5h0.7v5.7H423l-0.1-0.5l0,0
			c-0.3,0.3-0.7,0.6-1.2,0.6C420.7,110.1,420,109.4,420,108.1z M422.8,109v-2c-0.3-0.3-0.6-0.4-0.9-0.4c-0.6,0-1.1,0.6-1.1,1.5
			s0.4,1.5,1.1,1.5C422.1,109.6,422.5,109.4,422.8,109z"/>
		<path class="st3" d="M424.6,104.9c0-0.3,0.2-0.4,0.5-0.4s0.5,0.2,0.5,0.4s-0.2,0.4-0.5,0.4C424.8,105.3,424.6,105.2,424.6,104.9z
			 M424.7,106.1h0.7v3.9h-0.7V106.1z"/>
		<path class="st3" d="M426.1,106.1h0.7l0.7,2.2c0.1,0.4,0.2,0.8,0.4,1.1l0,0c0.1-0.4,0.2-0.8,0.4-1.1l0.7-2.2h0.6l-1.4,3.9h-0.8
			L426.1,106.1z"/>
		<path class="st3" d="M430.3,104.9c0-0.3,0.2-0.4,0.5-0.4s0.5,0.2,0.5,0.4s-0.2,0.4-0.5,0.4C430.5,105.3,430.3,105.2,430.3,104.9z
			 M430.4,106.1h0.7v3.9h-0.7V106.1z"/>
		<path class="st3" d="M432.1,108.1c0-1.3,0.8-2,1.7-2c0.5,0,0.7,0.2,1.1,0.4v-0.7v-1.5h0.7v5.7H435l-0.1-0.5l0,0
			c-0.3,0.3-0.7,0.6-1.2,0.6C432.7,110.1,432.1,109.4,432.1,108.1z M434.9,109v-2c-0.3-0.3-0.6-0.4-0.9-0.4c-0.6,0-1.1,0.6-1.1,1.5
			s0.4,1.5,1.1,1.5C434.2,109.6,434.5,109.4,434.9,109z"/>
		<path class="st3" d="M436.8,108.6v-2.5h0.7v2.4c0,0.7,0.2,1,0.7,1c0.4,0,0.7-0.2,1-0.7V106h0.7v3.9h-0.5l-0.1-0.6l0,0
			c-0.4,0.4-0.7,0.7-1.3,0.7C437.1,110.1,436.8,109.6,436.8,108.6z"/>
		<path class="st3" d="M440.9,109c0-0.8,0.7-1.3,2.4-1.4c0-0.5-0.2-1-0.8-1c-0.4,0-0.9,0.2-1.2,0.4l-0.3-0.5
			c0.4-0.2,0.9-0.5,1.5-0.5c0.9,0,1.3,0.6,1.3,1.6v2.4h-0.5l-0.1-0.5l0,0c-0.4,0.3-0.8,0.6-1.3,0.6S440.9,109.7,440.9,109z
			 M443.3,109.1V108c-1.3,0.2-1.7,0.5-1.7,1c0,0.4,0.3,0.6,0.7,0.6C442.6,109.6,442.9,109.4,443.3,109.1z"/>
		<path class="st3" d="M445.2,109.2v-4.9h0.7v5c0,0.2,0.1,0.3,0.2,0.3h0.1l0.1,0.5c-0.1,0-0.2,0.1-0.4,0.1
			C445.4,110.1,445.2,109.8,445.2,109.2z"/>
		<path class="st3" d="M449.4,109.6L449.4,109.6l-0.1,0.4h-0.5v-5.7h0.7v1.6v0.7c0.4-0.3,0.8-0.5,1.2-0.5c1,0,1.5,0.8,1.5,2
			c0,1.3-0.8,2.1-1.7,2.1C450.2,110.1,449.8,109.9,449.4,109.6z M451.5,108c0-0.9-0.3-1.4-1-1.4c-0.3,0-0.7,0.2-1,0.5v2
			c0.3,0.3,0.7,0.4,0.9,0.4C451.1,109.6,451.5,109,451.5,108z"/>
		<path class="st3" d="M453.1,104.9c0-0.3,0.2-0.4,0.5-0.4s0.5,0.2,0.5,0.4s-0.2,0.4-0.5,0.4C453.3,105.3,453.1,105.2,453.1,104.9z
			 M453.2,106.1h0.7v3.9h-0.7V106.1z"/>
		<path class="st3" d="M455.2,106.1h0.5l0.1,0.6l0,0c0.4-0.4,0.8-0.7,1.3-0.7c0.8,0,1.2,0.5,1.2,1.5v2.5h-0.7v-2.4
			c0-0.7-0.2-1-0.7-1c-0.4,0-0.7,0.2-1.1,0.6v2.8h-0.7v-3.9H455.2z"/>
		<path class="st3" d="M459.1,109.6l0.3-0.4c0.3,0.3,0.7,0.5,1.1,0.5c0.5,0,0.8-0.3,0.8-0.6c0-0.4-0.5-0.6-0.9-0.7
			c-0.5-0.2-1.2-0.5-1.2-1.1s0.5-1.1,1.3-1.1c0.5,0,0.9,0.2,1.2,0.4l-0.3,0.4c-0.3-0.2-0.5-0.3-0.9-0.3c-0.5,0-0.7,0.3-0.7,0.6
			c0,0.4,0.4,0.5,0.9,0.7c0.6,0.2,1.2,0.4,1.2,1.2c0,0.6-0.5,1.2-1.4,1.2C460,110.1,459.5,109.9,459.1,109.6z"/>
		<path class="st3" d="M464.4,108.6v-2.5h0.7v2.4c0,0.7,0.2,1,0.7,1c0.4,0,0.7-0.2,1-0.7V106h0.7v3.9H467l-0.1-0.6l0,0
			c-0.4,0.4-0.7,0.7-1.3,0.7C464.8,110.1,464.4,109.6,464.4,108.6z"/>
		<path class="st3" d="M468.4,109.6l0.3-0.4c0.3,0.3,0.7,0.5,1.1,0.5c0.5,0,0.8-0.3,0.8-0.6c0-0.4-0.5-0.6-0.9-0.7
			c-0.5-0.2-1.2-0.5-1.2-1.1s0.5-1.1,1.3-1.1c0.5,0,0.9,0.2,1.2,0.4l-0.3,0.4c-0.3-0.2-0.5-0.3-0.9-0.3c-0.5,0-0.7,0.3-0.7,0.6
			c0,0.4,0.4,0.5,0.9,0.7c0.6,0.2,1.2,0.4,1.2,1.2c0,0.6-0.5,1.2-1.4,1.2C469.3,110.1,468.8,109.9,468.4,109.6z"/>
		<path class="st3" d="M472,104.9c0-0.3,0.2-0.4,0.5-0.4s0.5,0.2,0.5,0.4s-0.2,0.4-0.5,0.4C472.2,105.3,472,105.2,472,104.9z
			 M472.2,106.1h0.7v3.9h-0.7V106.1z"/>
		<path class="st3" d="M474.1,106.1h0.5l0.1,0.6l0,0c0.4-0.4,0.8-0.7,1.3-0.7c0.8,0,1.2,0.5,1.2,1.5v2.5h-0.7v-2.4
			c0-0.7-0.2-1-0.7-1c-0.4,0-0.7,0.2-1.1,0.6v2.8H474v-3.9H474.1z"/>
		<path class="st3" d="M478.2,110.8c0-0.3,0.2-0.6,0.6-0.9l0,0c-0.2-0.1-0.3-0.3-0.3-0.6s0.2-0.6,0.4-0.7l0,0
			c-0.3-0.2-0.5-0.6-0.5-1c0-0.8,0.7-1.4,1.5-1.4c0.2,0,0.4,0,0.5,0.1h1.4v0.5H481c0.2,0.2,0.3,0.5,0.3,0.8c0,0.8-0.6,1.3-1.4,1.3
			c-0.2,0-0.4,0-0.6-0.1c-0.1,0.1-0.2,0.2-0.2,0.5c0,0.2,0.2,0.4,0.7,0.4h0.8c0.9,0,1.4,0.3,1.4,0.9c0,0.7-0.8,1.3-2,1.3
			C478.8,111.8,478.2,111.4,478.2,110.8z M481.1,110.6c0-0.4-0.3-0.5-0.8-0.5h-0.7c-0.1,0-0.3,0-0.5-0.1c-0.3,0.2-0.4,0.4-0.4,0.7
			c0,0.4,0.4,0.7,1.1,0.7C480.6,111.4,481.1,111,481.1,110.6z M480.6,107.4c0-0.6-0.4-0.9-0.8-0.9s-0.8,0.3-0.8,0.9
			c0,0.6,0.4,0.9,0.8,0.9C480.2,108.3,480.6,108,480.6,107.4z"/>
		<path class="st3" d="M484.2,104.8h3v0.6h-2.4v1.8h2v0.6h-2v2.3h-0.7v-5.3H484.2z"/>
		<path class="st3" d="M488.1,104.8h1.3c1.6,0,2.5,0.9,2.5,2.6s-0.9,2.6-2.4,2.6h-1.3v-5.2H488.1z M489.4,109.5
			c1.2,0,1.8-0.8,1.8-2.1s-0.6-2.1-1.8-2.1h-0.6v4.1h0.6V109.5z"/>
		<path class="st3" d="M493,104.8h1.6c1.1,0,1.8,0.4,1.8,1.5c0,1-0.8,1.5-1.8,1.5h-1v2.2H493V104.8z M494.6,107.3
			c0.8,0,1.3-0.3,1.3-1s-0.4-0.9-1.3-0.9h-0.9v1.9H494.6z M494.5,107.6l0.5-0.3l1.6,2.7h-0.8L494.5,107.6z"/>
	</g>
</g>
<rect x="359.8" y="142.1" class="st1" width="15.5" height="8.3"/>
<rect x="375.3" y="142.1" class="st1" width="15.5" height="8.3"/>
<rect x="390.8" y="142.1" class="st6" width="15.5" height="8.3"/>
<rect x="406.3" y="142.1" class="st6" width="15.5" height="8.3"/>
<rect x="421.8" y="142.1" class="st6" width="15.5" height="8.3"/>
<rect x="437.3" y="142.1" class="st6" width="15.5" height="8.3"/>
<rect x="452.8" y="142.1" class="st6" width="15.5" height="8.3"/>
<rect x="468.3" y="142.1" class="st6" width="15.5" height="8.3"/>
<rect x="483.8" y="142.1" class="st6" width="15.5" height="8.3"/>
<rect x="499.3" y="142.1" class="st1" width="15.5" height="8.3"/>
<g>
	<g>
		<line class="st7" x1="383.9" y1="127.7" x2="383.9" y2="132.3"/>
		<g>
			<path class="st3" d="M383.9,138.3c-1.1-2.8-2.9-6.4-4.8-8.5l4.8,1.7l4.8-1.7C386.7,131.9,384.9,135.5,383.9,138.3z"/>
		</g>
	</g>
</g>
<g>
	<g>
		<path class="st3" d="M390.6,130.9h0.8l1,2.8c0.1,0.4,0.2,0.7,0.4,1.1l0,0c0.1-0.4,0.2-0.7,0.4-1.1l1-2.8h0.8v5.2h-0.6v-2.9
			c0-0.5,0.1-1.1,0.1-1.5l0,0l-0.4,1.2l-1,2.7h-0.4l-1-2.7l-0.4-1.2l0,0c0,0.5,0.1,1.1,0.1,1.5v2.9h-0.6v-5.2H390.6z"/>
		<path class="st3" d="M396.1,134.2c0-1.3,0.9-2,1.7-2c1,0,1.5,0.7,1.5,1.8c0,0.1,0,0.3,0,0.4h-2.6c0,0.8,0.5,1.4,1.3,1.4
			c0.4,0,0.7-0.1,1-0.3l0.2,0.4c-0.3,0.2-0.8,0.4-1.3,0.4C396.9,136.2,396.1,135.5,396.1,134.2z M398.8,133.9c0-0.8-0.3-1.2-1-1.2
			c-0.5,0-1,0.4-1.1,1.2H398.8z"/>
		<path class="st3" d="M400.3,132.2h0.5l0.1,0.7l0,0c0.3-0.5,0.7-0.8,1.1-0.8c0.2,0,0.3,0,0.4,0.1l-0.1,0.6c-0.1,0-0.2-0.1-0.4-0.1
			c-0.3,0-0.7,0.2-1,0.9v2.5h-0.7v-3.9H400.3z"/>
		<path class="st3" d="M402.8,136.9c0-0.3,0.2-0.6,0.6-0.9l0,0c-0.2-0.1-0.3-0.3-0.3-0.6s0.2-0.6,0.4-0.7l0,0
			c-0.3-0.2-0.5-0.6-0.5-1c0-0.8,0.7-1.4,1.5-1.4c0.2,0,0.4,0,0.5,0.1h1.4v0.5h-0.8c0.2,0.2,0.3,0.5,0.3,0.8c0,0.8-0.6,1.3-1.4,1.3
			c-0.2,0-0.4,0-0.6-0.1c-0.1,0.1-0.2,0.2-0.2,0.5c0,0.2,0.2,0.4,0.7,0.4h0.8c0.9,0,1.4,0.3,1.4,0.9c0,0.7-0.8,1.3-2,1.3
			C403.4,137.9,402.8,137.5,402.8,136.9z M405.7,136.7c0-0.4-0.3-0.5-0.8-0.5h-0.7c-0.1,0-0.3,0-0.5-0.1c-0.3,0.2-0.4,0.4-0.4,0.7
			c0,0.4,0.4,0.7,1.1,0.7C405.2,137.4,405.7,137.1,405.7,136.7z M405.2,133.5c0-0.6-0.4-0.9-0.8-0.9s-0.8,0.3-0.8,0.9
			c0,0.6,0.4,0.9,0.8,0.9C404.8,134.4,405.2,134.1,405.2,133.5z"/>
		<path class="st3" d="M406.8,134.2c0-1.3,0.9-2,1.7-2c1,0,1.5,0.7,1.5,1.8c0,0.1,0,0.3,0,0.4h-2.6c0,0.8,0.5,1.4,1.3,1.4
			c0.4,0,0.7-0.1,1-0.3l0.2,0.4c-0.3,0.2-0.8,0.4-1.3,0.4C407.6,136.2,406.8,135.5,406.8,134.2z M409.5,133.9c0-0.8-0.3-1.2-1-1.2
			c-0.5,0-1,0.4-1.1,1.2H409.5z"/>
		<path class="st3" d="M413.3,135.7L413.3,135.7l-0.1,0.4h-0.5v-5.7h0.7v1.6v0.7c0.4-0.3,0.8-0.5,1.2-0.5c1,0,1.5,0.8,1.5,2
			c0,1.3-0.8,2.1-1.7,2.1C414,136.2,413.6,136,413.3,135.7z M415.4,134.1c0-0.9-0.3-1.4-1-1.4c-0.3,0-0.7,0.2-1,0.5v2
			c0.3,0.3,0.7,0.4,0.9,0.4C414.9,135.7,415.4,135.1,415.4,134.1z"/>
		<path class="st3" d="M416.9,131c0-0.3,0.2-0.4,0.5-0.4s0.5,0.2,0.5,0.4s-0.2,0.4-0.5,0.4S416.9,131.3,416.9,131z M417.1,132.2h0.7
			v3.9h-0.7V132.2z"/>
		<path class="st3" d="M419,132.2h0.5l0.1,0.6l0,0c0.4-0.4,0.8-0.7,1.3-0.7c0.8,0,1.2,0.5,1.2,1.5v2.5h-0.7v-2.4c0-0.7-0.2-1-0.7-1
			c-0.4,0-0.7,0.2-1.1,0.6v2.8H419V132.2z"/>
		<path class="st3" d="M423,135.7l0.3-0.4c0.3,0.3,0.7,0.5,1.1,0.5c0.5,0,0.8-0.3,0.8-0.6c0-0.4-0.5-0.6-0.9-0.7
			c-0.5-0.2-1.2-0.5-1.2-1.1s0.5-1.1,1.3-1.1c0.5,0,0.9,0.2,1.2,0.4l-0.3,0.4c-0.3-0.2-0.5-0.3-0.9-0.3c-0.5,0-0.7,0.3-0.7,0.6
			c0,0.4,0.4,0.5,0.9,0.7c0.6,0.2,1.2,0.4,1.2,1.2c0,0.6-0.5,1.2-1.4,1.2C423.9,136.2,423.3,136,423,135.7z"/>
		<path class="st3" d="M428.2,131c0-0.3,0.2-0.4,0.5-0.4s0.5,0.2,0.5,0.4s-0.2,0.4-0.5,0.4C428.4,131.4,428.2,131.3,428.2,131z
			 M428.3,132.2h0.7v3.9h-0.7V132.2z"/>
		<path class="st3" d="M430.3,132.2h0.5l0.1,0.6l0,0c0.4-0.4,0.8-0.7,1.3-0.7c0.8,0,1.2,0.5,1.2,1.5v2.5h-0.7v-2.4
			c0-0.7-0.2-1-0.7-1c-0.4,0-0.7,0.2-1.1,0.6v2.8h-0.7v-3.9H430.3z"/>
		<path class="st3" d="M434.8,134.9v-2.1h-0.6v-0.5h0.6l0.1-1.1h0.5v1.1h1.1v0.5h-1.1v2.2c0,0.5,0.2,0.7,0.6,0.7
			c0.1,0,0.3-0.1,0.4-0.1l0.1,0.5c-0.2,0.1-0.5,0.1-0.7,0.1C435,136.2,434.8,135.7,434.8,134.9z"/>
		<path class="st3" d="M437.1,134.2c0-1.3,0.8-2,1.8-2s1.8,0.7,1.8,2s-0.8,2-1.8,2S437.1,135.5,437.1,134.2z M440,134.2
			c0-0.9-0.5-1.5-1.1-1.5s-1.1,0.6-1.1,1.5s0.5,1.5,1.1,1.5S440,135.1,440,134.2z"/>
		<path class="st3" d="M443.3,132.2h0.5l0.1,0.4l0,0c0.4-0.3,0.8-0.5,1.2-0.5c1,0,1.5,0.8,1.5,2c0,1.3-0.8,2.1-1.7,2.1
			c-0.4,0-0.7-0.2-1.1-0.4v0.7v1.3h-0.7v-5.6H443.3z M446,134.1c0-0.9-0.3-1.4-1-1.4c-0.3,0-0.7,0.2-1,0.5v2
			c0.4,0.3,0.7,0.4,0.9,0.4C445.5,135.7,446,135.1,446,134.1z"/>
		<path class="st3" d="M447.4,134.2c0-1.3,0.9-2,1.7-2c1,0,1.5,0.7,1.5,1.8c0,0.1,0,0.3,0,0.4H448c0,0.8,0.5,1.4,1.3,1.4
			c0.4,0,0.7-0.1,1-0.3l0.2,0.4c-0.3,0.2-0.8,0.4-1.3,0.4C448.2,136.2,447.4,135.5,447.4,134.2z M450.1,133.9c0-0.8-0.3-1.2-1-1.2
			c-0.5,0-1,0.4-1.1,1.2H450.1z"/>
		<path class="st3" d="M451.4,135.1c0-0.8,0.7-1.3,2.4-1.4c0-0.5-0.2-1-0.8-1c-0.4,0-0.9,0.2-1.2,0.4l-0.3-0.5
			c0.4-0.2,0.9-0.5,1.5-0.5c0.9,0,1.3,0.6,1.3,1.6v2.4h-0.5l-0.1-0.5l0,0c-0.4,0.3-0.8,0.6-1.3,0.6
			C451.9,136.2,451.4,135.8,451.4,135.1z M453.8,135.2v-1.1c-1.3,0.2-1.7,0.5-1.7,1c0,0.4,0.3,0.6,0.7,0.6
			C453.1,135.7,453.4,135.5,453.8,135.2z"/>
		<path class="st3" d="M455.7,130.4h0.6v3.9l0,0l1.7-2h0.7l-1.3,1.6l1.5,2.3h-0.7l-1.1-1.9l-0.7,0.8v1h-0.6v-5.7H455.7z"/>
		<path class="st3" d="M459.2,135.7l0.3-0.4c0.3,0.3,0.7,0.5,1.1,0.5c0.5,0,0.8-0.3,0.8-0.6c0-0.4-0.5-0.6-0.9-0.7
			c-0.5-0.2-1.2-0.5-1.2-1.1s0.5-1.1,1.3-1.1c0.5,0,0.9,0.2,1.2,0.4l-0.3,0.4c-0.3-0.2-0.5-0.3-0.9-0.3c-0.5,0-0.7,0.3-0.7,0.6
			c0,0.4,0.4,0.5,0.9,0.7c0.6,0.2,1.2,0.4,1.2,1.2c0,0.6-0.5,1.2-1.4,1.2C460.1,136.2,459.5,136,459.2,135.7z"/>
		<path class="st3" d="M464.5,134.7v-2.5h0.7v2.4c0,0.7,0.2,1,0.7,1c0.4,0,0.7-0.2,1-0.7v-2.8h0.7v3.9H467l-0.1-0.6l0,0
			c-0.4,0.4-0.7,0.7-1.3,0.7C464.9,136.2,464.5,135.7,464.5,134.7z"/>
		<path class="st3" d="M468.5,135.7l0.3-0.4c0.3,0.3,0.7,0.5,1.1,0.5c0.5,0,0.8-0.3,0.8-0.6c0-0.4-0.5-0.6-0.9-0.7
			c-0.5-0.2-1.2-0.5-1.2-1.1s0.5-1.1,1.3-1.1c0.5,0,0.9,0.2,1.2,0.4l-0.3,0.4c-0.3-0.2-0.5-0.3-0.9-0.3c-0.5,0-0.7,0.3-0.7,0.6
			c0,0.4,0.4,0.5,0.9,0.7c0.6,0.2,1.2,0.4,1.2,1.2c0,0.6-0.5,1.2-1.4,1.2C469.3,136.2,468.8,136,468.5,135.7z"/>
		<path class="st3" d="M472.1,131c0-0.3,0.2-0.4,0.5-0.4s0.5,0.2,0.5,0.4s-0.2,0.4-0.5,0.4C472.3,131.4,472.1,131.3,472.1,131z
			 M472.2,132.2h0.7v3.9h-0.7V132.2z"/>
		<path class="st3" d="M474.2,132.2h0.5l0.1,0.6l0,0c0.4-0.4,0.8-0.7,1.3-0.7c0.8,0,1.2,0.5,1.2,1.5v2.5h-0.7v-2.4
			c0-0.7-0.2-1-0.7-1c-0.4,0-0.7,0.2-1.1,0.6v2.8h-0.7v-3.9H474.2z"/>
		<path class="st3" d="M478.3,136.9c0-0.3,0.2-0.6,0.6-0.9l0,0c-0.2-0.1-0.3-0.3-0.3-0.6s0.2-0.6,0.4-0.7l0,0
			c-0.3-0.2-0.5-0.6-0.5-1c0-0.8,0.7-1.4,1.5-1.4c0.2,0,0.4,0,0.5,0.1h1.4v0.5H481c0.2,0.2,0.3,0.5,0.3,0.8c0,0.8-0.6,1.3-1.4,1.3
			c-0.2,0-0.4,0-0.6-0.1c-0.1,0.1-0.2,0.2-0.2,0.5c0,0.2,0.2,0.4,0.7,0.4h0.8c0.9,0,1.4,0.3,1.4,0.9c0,0.7-0.8,1.3-2,1.3
			C478.9,137.9,478.3,137.5,478.3,136.9z M481.2,136.7c0-0.4-0.3-0.5-0.8-0.5h-0.7c-0.1,0-0.3,0-0.5-0.1c-0.3,0.2-0.4,0.4-0.4,0.7
			c0,0.4,0.4,0.7,1.1,0.7C480.7,137.4,481.2,137.1,481.2,136.7z M480.7,133.5c0-0.6-0.4-0.9-0.8-0.9s-0.8,0.3-0.8,0.9
			c0,0.6,0.4,0.9,0.8,0.9C480.3,134.4,480.7,134.1,480.7,133.5z"/>
		<path class="st3" d="M483.9,133.5c0-1.7,1-2.7,2.4-2.7c0.7,0,1.2,0.3,1.5,0.6l-0.4,0.4c-0.3-0.3-0.6-0.5-1.1-0.5
			c-1.1,0-1.7,0.8-1.7,2.1s0.6,2.1,1.7,2.1c0.4,0,0.7-0.1,0.9-0.3V134h-1.1v-0.6h1.7v2.2c-0.3,0.4-0.9,0.6-1.6,0.6
			C484.9,136.2,483.9,135.2,483.9,133.5z"/>
		<path class="st3" d="M490.2,130.9h0.8l1.8,5.2H492l-0.9-2.9c-0.2-0.6-0.4-1.2-0.5-1.8l0,0c-0.2,0.6-0.3,1.2-0.5,1.8l-0.9,2.9h-0.7
			L490.2,130.9z M489.4,134h2.4v0.5h-2.4V134z"/>
		<path class="st3" d="M493.5,130.9h1.5c1.2,0,2,0.4,2,1.5s-0.8,1.6-1.9,1.6h-0.9v2.1h-0.7V130.9z M494.9,133.5
			c0.9,0,1.4-0.3,1.4-1.1s-0.5-1-1.4-1h-0.7v2.1H494.9z"/>
	</g>
</g>
<g>
	<g>
		<line class="st7" x1="306.8" y1="11.9" x2="306.8" y2="24.1"/>
		<g>
			<path class="st3" d="M306.8,30.2c-1.1-2.8-2.9-6.4-4.8-8.5l4.8,1.7l4.8-1.7C309.6,23.8,307.9,27.3,306.8,30.2z"/>
		</g>
	</g>
</g>
<g>
	<g>
		<path class="st3" d="M526.2,77.2h1.9v0.4h-1.5v1.1h1.3v0.4h-1.3v1.5h-0.4V77.2z"/>
		<path class="st3" d="M528.7,77.2h0.8c1,0,1.6,0.6,1.6,1.7s-0.5,1.7-1.6,1.7h-0.9v-3.4H528.7z M529.5,80.2c0.8,0,1.2-0.5,1.2-1.3
			s-0.4-1.3-1.2-1.3h-0.4v2.6H529.5z"/>
		<path class="st3" d="M531.8,77.2h1c0.7,0,1.2,0.2,1.2,0.9s-0.5,1-1.2,1h-0.6v1.4h-0.4V77.2z M532.8,78.8c0.5,0,0.8-0.2,0.8-0.6
			c0-0.4-0.3-0.6-0.8-0.6h-0.6v1.2L532.8,78.8L532.8,78.8z M532.7,79l0.3-0.2l1,1.7h-0.5L532.7,79z"/>
		<path class="st3" d="M534.4,78.2h2.2v0.3h-2.2V78.2z M534.4,79.2h2.2v0.3h-2.2V79.2z"/>
		<path class="st3" d="M537,78.9c0-1.1,0.4-1.7,1-1.7s1,0.6,1,1.7c0,1.1-0.4,1.7-1,1.7S537,80,537,78.9z M538.6,78.9
			c0-0.9-0.3-1.3-0.6-1.3s-0.6,0.4-0.6,1.3c0,1,0.3,1.4,0.6,1.4S538.6,79.8,538.6,78.9z"/>
		<path class="st3" d="M539.6,80.3c0-0.2,0.1-0.3,0.3-0.3s0.3,0.1,0.3,0.3s-0.1,0.3-0.3,0.3C539.7,80.6,539.6,80.5,539.6,80.3z"/>
		<path class="st3" d="M540.8,78.9c0-1.1,0.4-1.7,1-1.7s1,0.6,1,1.7c0,1.1-0.4,1.7-1,1.7S540.8,80,540.8,78.9z M542.4,78.9
			c0-0.9-0.3-1.3-0.6-1.3s-0.6,0.4-0.6,1.3c0,1,0.3,1.4,0.6,1.4S542.4,79.8,542.4,78.9z"/>
		<path class="st3" d="M543.2,80.1l0.2-0.3c0.2,0.2,0.4,0.4,0.8,0.4c0.4,0,0.7-0.3,0.7-0.7s-0.3-0.7-0.7-0.7c-0.2,0-0.4,0.1-0.6,0.2
			l-0.2-0.1l0.1-1.6h1.6v0.4h-1.3l-0.1,1c0.2-0.1,0.3-0.1,0.5-0.1c0.6,0,1,0.3,1,1s-0.5,1.1-1.1,1.1
			C543.7,80.6,543.4,80.4,543.2,80.1z"/>
	</g>
</g>
<rect x="497.4" y="80.8" class="st8" width="15.5" height="4.2"/>
<rect x="481.9" y="77.5" class="st8" width="15.5" height="7.5"/>
<rect x="466.5" y="59.5" class="st8" width="15.5" height="25.5"/>
<rect x="450.9" y="82.8" class="st8" width="15.5" height="4.2"/>
<rect x="435.3" y="80.5" class="st8" width="15.5" height="6.5"/>
<rect x="419.8" y="85" class="st8" width="15.5" height="2.1"/>
<rect x="404.3" y="79.5" class="st8" width="15.5" height="7.5"/>
<rect x="388.8" y="73.8" class="st8" width="15.5" height="13.3"/>
<rect x="373.3" y="82.8" class="st8" width="15.5" height="4.2"/>
<g>
	<g>
		<line class="st9" x1="357.7" y1="87" x2="358.2" y2="87"/>
		<line class="st10" x1="359.2" y1="87" x2="511.9" y2="87"/>
		<line class="st9" x1="512.4" y1="87" x2="512.9" y2="87"/>
	</g>
</g>
<g>
	<g>
		<path class="st11" d="M358.1,88.2c8.2-3,15.7-4.8,24.4-5.1c7.2-0.2,10.9-3.5,16.4-7.7c0.8-0.6,1.5-1.3,2.4-1.7
			c2.5-1.2,3.5-1.1,5.8,0.5c2.4,1.6,2.8,2.7,4.2,5.1c1.2,2.2,2.5,4.2,4.6,5.6c4,2.7,8.9,2.4,13.4,1.1c3.6-1.1,7.1-2.8,10.8-3.3
			c4.4-0.6,8.5,1,12.8,1.7c4.4,0.6,8.8-0.2,12.1-3.5c3.7-3.7,4.1-9.1,5.1-13.9c0.6-2.9,2.2-8.9,5.1-4c1.5,2.5,1.6,6.1,2.5,8.8
			c1.7,5.1,5.2,8.5,10.4,9.8c8,2,16.7,2.1,24.9,3c1.6,0.2,1.6-2.3,0-2.5c-7.8-0.9-16-1.1-23.6-2.7c-8.8-1.9-9.1-9.3-11.6-16.4
			c-0.9-2.4-2.6-6.4-5.7-5.2c-3.6,1.4-4.2,7.5-4.8,10.6c-1.4,7.1-3.8,14.2-12.4,13.9c-3.7-0.1-7.2-1.6-10.9-1.9
			c-3.5-0.4-6.7,0.4-10,1.5c-7.5,2.6-15.4,5.4-20.3-3c-2.5-4.2-4.4-9.2-10.3-8.3c-2.6,0.4-4.8,2-6.8,3.6c-4.3,3.5-7.5,6.2-13.3,6.5
			c-3.9,0.2-7.7,0.1-11.6,0.8c-4.9,1-9.6,2.7-14.3,4.4C355.9,86.4,356.6,88.8,358.1,88.2L358.1,88.2z"/>
	</g>
</g>
<line class="st12" x1="357.7" y1="96.2" x2="512.9" y2="96.2"/>
<line class="st12" x1="357.7" y1="87" x2="357.7" y2="96.2"/>
<line class="st12" x1="373.3" y1="82.8" x2="373.3" y2="96.2"/>
<line class="st12" x1="388.8" y1="73.8" x2="388.8" y2="96.2"/>
<line class="st12" x1="404.3" y1="73.8" x2="404.3" y2="96.2"/>
<line class="st12" x1="419.8" y1="79.1" x2="419.8" y2="96.2"/>
<line class="st12" x1="435.3" y1="80.5" x2="435.3" y2="96.2"/>
<line class="st12" x1="450.9" y1="80.5" x2="450.9" y2="96.2"/>
<line class="st12" x1="466.4" y1="59.5" x2="466.4" y2="94.2"/>
<line class="st12" x1="481.9" y1="59.5" x2="481.9" y2="94.2"/>
<line class="st12" x1="497.4" y1="77.5" x2="497.4" y2="94.2"/>
<line class="st12" x1="512.9" y1="83.3" x2="512.9" y2="96.2"/>
<g>
	<g>
		<path class="st3" d="M362.7,92.2c0-1.1,0.4-1.7,1-1.7s1,0.6,1,1.7c0,1.1-0.4,1.7-1,1.7S362.7,93.3,362.7,92.2z M364.4,92.2
			c0-0.9-0.3-1.3-0.6-1.3s-0.6,0.4-0.6,1.3c0,1,0.3,1.4,0.6,1.4S364.4,93.2,364.4,92.2z"/>
		<path class="st3" d="M365.4,93.6c0-0.2,0.1-0.3,0.3-0.3c0.2,0,0.3,0.1,0.3,0.3s-0.1,0.3-0.3,0.3C365.5,93.9,365.4,93.8,365.4,93.6
			z"/>
		<path class="st3" d="M367.8,91.7c0-0.2,0-0.5,0-0.6l0,0c-0.1,0.2-0.2,0.3-0.3,0.5l-0.8,1.1h1.9V93h-2.3v-0.3l1.4-2.1h0.5v3.2h-0.4
			L367.8,91.7L367.8,91.7z"/>
	</g>
</g>
<g>
	<g>
		<path class="st3" d="M378.1,92.2c0-1.1,0.4-1.7,1-1.7s1,0.6,1,1.7c0,1.1-0.4,1.7-1,1.7S378.1,93.3,378.1,92.2z M379.8,92.2
			c0-0.9-0.3-1.3-0.6-1.3s-0.6,0.4-0.6,1.3c0,1,0.3,1.4,0.6,1.4S379.8,93.2,379.8,92.2z"/>
		<path class="st3" d="M380.7,93.6c0-0.2,0.1-0.3,0.3-0.3c0.2,0,0.3,0.1,0.3,0.3s-0.1,0.3-0.3,0.3C380.9,93.9,380.7,93.8,380.7,93.6
			z"/>
		<path class="st3" d="M382.1,93.5h0.7v-2.4h-0.6v-0.3c0.3-0.1,0.5-0.1,0.7-0.2h0.3v2.9h0.7v0.3h-1.8L382.1,93.5L382.1,93.5z"/>
	</g>
</g>
<g>
	<g>
		<path class="st3" d="M392.4,93.5h0.7v-2.4h-0.6v-0.3c0.3-0.1,0.5-0.1,0.7-0.2h0.3v2.9h0.7v0.3h-1.8L392.4,93.5L392.4,93.5z"/>
		<path class="st3" d="M394.7,92.6c0-0.8,0.5-1.3,1.1-1.3s1,0.5,1,1.2c0,0.1,0,0.2,0,0.2h-1.7c0,0.5,0.3,0.9,0.8,0.9
			c0.2,0,0.4-0.1,0.6-0.2l0.1,0.3c-0.2,0.1-0.5,0.3-0.8,0.3C395.3,93.9,394.7,93.4,394.7,92.6z M396.5,92.4c0-0.5-0.2-0.8-0.6-0.8
			c-0.3,0-0.7,0.3-0.7,0.8H396.5z"/>
		<path class="st3" d="M397.2,92.4h1.2v0.3h-1.2V92.4z"/>
		<path class="st3" d="M398.7,93.5l0.2-0.3c0.2,0.2,0.4,0.4,0.8,0.4s0.7-0.3,0.7-0.7s-0.3-0.7-0.7-0.7c-0.2,0-0.4,0.1-0.6,0.2
			l-0.2-0.1l0.1-1.6h1.6v0.4h-1.3l-0.1,1c0.2-0.1,0.3-0.1,0.5-0.1c0.6,0,1,0.3,1,1s-0.5,1.1-1.1,1.1
			C399.3,93.9,398.9,93.7,398.7,93.5z"/>
	</g>
</g>
<g>
	<g>
		<path class="st3" d="M407.9,92.2c0-1.1,0.4-1.7,1-1.7s1,0.6,1,1.7c0,1.1-0.4,1.7-1,1.7S407.9,93.3,407.9,92.2z M409.5,92.2
			c0-0.9-0.3-1.3-0.6-1.3s-0.6,0.4-0.6,1.3c0,1,0.3,1.4,0.6,1.4S409.5,93.2,409.5,92.2z"/>
		<path class="st3" d="M410.5,93.6c0-0.2,0.1-0.3,0.3-0.3c0.2,0,0.3,0.1,0.3,0.3s-0.1,0.3-0.3,0.3C410.6,93.9,410.5,93.8,410.5,93.6
			z"/>
		<path class="st3" d="M411.7,92.2c0-1.1,0.4-1.7,1-1.7s1,0.6,1,1.7c0,1.1-0.4,1.7-1,1.7S411.7,93.3,411.7,92.2z M413.3,92.2
			c0-0.9-0.3-1.3-0.6-1.3s-0.6,0.4-0.6,1.3c0,1,0.3,1.4,0.6,1.4S413.3,93.2,413.3,92.2z"/>
		<path class="st3" d="M414.4,93.5h0.7v-2.4h-0.6v-0.3c0.3-0.1,0.5-0.1,0.7-0.2h0.3v2.9h0.7v0.3h-1.8L414.4,93.5L414.4,93.5z"/>
	</g>
</g>
<g>
	<g>
		<path class="st3" d="M424.6,92.2c0-1.1,0.4-1.7,1-1.7s1,0.6,1,1.7c0,1.1-0.4,1.7-1,1.7S424.6,93.3,424.6,92.2z M426.3,92.2
			c0-0.9-0.3-1.3-0.6-1.3s-0.6,0.4-0.6,1.3c0,1,0.3,1.4,0.6,1.4S426.3,93.2,426.3,92.2z"/>
		<path class="st3" d="M427.3,93.6c0-0.2,0.1-0.3,0.3-0.3c0.2,0,0.3,0.1,0.3,0.3s-0.1,0.3-0.3,0.3C427.4,93.9,427.3,93.8,427.3,93.6
			z"/>
		<path class="st3" d="M428.4,93.6c1-1,1.5-1.6,1.5-2.1c0-0.4-0.2-0.6-0.6-0.6c-0.3,0-0.5,0.2-0.7,0.4l-0.2-0.2
			c0.3-0.3,0.6-0.5,1-0.5c0.6,0,1,0.4,1,1s-0.6,1.2-1.3,2c0.2,0,0.4,0,0.5,0h0.9V94h-2.1L428.4,93.6L428.4,93.6z"/>
	</g>
</g>
<g>
	<g>
		<path class="st3" d="M438.9,92.2c0-1.1,0.4-1.7,1-1.7s1,0.6,1,1.7c0,1.1-0.4,1.7-1,1.7S438.9,93.3,438.9,92.2z M440.6,92.2
			c0-0.9-0.3-1.3-0.6-1.3s-0.6,0.4-0.6,1.3c0,1,0.3,1.4,0.6,1.4S440.6,93.2,440.6,92.2z"/>
		<path class="st3" d="M441.5,93.6c0-0.2,0.1-0.3,0.3-0.3c0.2,0,0.3,0.1,0.3,0.3s-0.1,0.3-0.3,0.3C441.7,93.9,441.5,93.8,441.5,93.6
			z"/>
		<path class="st3" d="M442.7,92.2c0-1.1,0.4-1.7,1-1.7s1,0.6,1,1.7c0,1.1-0.4,1.7-1,1.7S442.7,93.3,442.7,92.2z M444.4,92.2
			c0-0.9-0.3-1.3-0.6-1.3s-0.6,0.4-0.6,1.3c0,1,0.3,1.4,0.6,1.4S444.4,93.2,444.4,92.2z"/>
		<path class="st3" d="M445.1,93.5l0.2-0.3c0.2,0.2,0.4,0.4,0.8,0.4s0.7-0.3,0.7-0.7s-0.3-0.7-0.7-0.7c-0.2,0-0.4,0.1-0.6,0.2
			l-0.2-0.1l0.1-1.6h1.6v0.4h-1.3l-0.1,1c0.2-0.1,0.3-0.1,0.5-0.1c0.6,0,1,0.3,1,1s-0.5,1.1-1.1,1.1
			C445.7,93.9,445.3,93.7,445.1,93.5z"/>
	</g>
</g>
<g>
	<g>
		<path class="st3" d="M455.7,92.2c0-1.1,0.4-1.7,1-1.7s1,0.6,1,1.7c0,1.1-0.4,1.7-1,1.7S455.7,93.3,455.7,92.2z M457.4,92.2
			c0-0.9-0.3-1.3-0.6-1.3s-0.6,0.4-0.6,1.3c0,1,0.3,1.4,0.6,1.4S457.4,93.2,457.4,92.2z"/>
		<path class="st3" d="M458.3,93.6c0-0.2,0.1-0.3,0.3-0.3c0.2,0,0.3,0.1,0.3,0.3s-0.1,0.3-0.3,0.3C458.4,93.9,458.3,93.8,458.3,93.6
			z"/>
		<path class="st3" d="M459.6,93.5h0.7v-2.4h-0.6v-0.3c0.3-0.1,0.5-0.1,0.7-0.2h0.3v2.9h0.7v0.3h-1.8L459.6,93.5L459.6,93.5z"/>
	</g>
</g>
<g>
	<g>
		<path class="st3" d="M470.1,91.6h0.7v-2.4h-0.6V89c0.3-0.1,0.5-0.1,0.7-0.2h0.3v2.9h0.7V92h-1.8L470.1,91.6L470.1,91.6z"/>
		<path class="st3" d="M472.5,90.7c0-0.8,0.5-1.3,1.1-1.3s1,0.5,1,1.2c0,0.1,0,0.2,0,0.2h-1.7c0,0.5,0.3,0.9,0.8,0.9
			c0.2,0,0.4-0.1,0.6-0.2l0.1,0.3c-0.2,0.1-0.5,0.3-0.8,0.3C473,92,472.5,91.5,472.5,90.7z M474.2,90.5c0-0.5-0.2-0.8-0.6-0.8
			c-0.3,0-0.7,0.3-0.7,0.8H474.2z"/>
		<path class="st3" d="M475,90.5h1.2v0.3H475V90.5z"/>
		<path class="st3" d="M478.2,89.1h-1.6v-0.4h2.1V89c-0.8,1-0.9,1.7-1,3h-0.4C477.3,90.7,477.5,90,478.2,89.1z"/>
	</g>
</g>
<g>
	<g>
		<path class="st3" d="M485.5,91.6h0.7v-2.4h-0.6V89c0.3-0.1,0.5-0.1,0.7-0.2h0.3v2.9h0.7V92h-1.8L485.5,91.6L485.5,91.6z"/>
		<path class="st3" d="M487.8,90.7c0-0.8,0.5-1.3,1.1-1.3s1,0.5,1,1.2c0,0.1,0,0.2,0,0.2h-1.7c0,0.5,0.3,0.9,0.8,0.9
			c0.2,0,0.4-0.1,0.6-0.2l0.1,0.3c-0.2,0.1-0.5,0.3-0.8,0.3C488.4,92,487.8,91.5,487.8,90.7z M489.6,90.5c0-0.5-0.2-0.8-0.6-0.8
			c-0.3,0-0.7,0.3-0.7,0.8H489.6z"/>
		<path class="st3" d="M490.3,90.5h1.2v0.3h-1.2V90.5z"/>
		<path class="st3" d="M491.8,91.6l0.2-0.3c0.2,0.2,0.4,0.4,0.8,0.4s0.7-0.2,0.7-0.6c0-0.4-0.3-0.6-1-0.6v-0.3
			c0.7,0,0.9-0.3,0.9-0.6s-0.2-0.5-0.6-0.5c-0.3,0-0.5,0.1-0.7,0.3l-0.2-0.3c0.2-0.2,0.5-0.4,0.9-0.4c0.6,0,1,0.3,1,0.8
			c0,0.4-0.2,0.6-0.6,0.8l0,0c0.4,0.1,0.7,0.4,0.7,0.8c0,0.6-0.5,0.9-1.1,0.9C492.4,92,492.1,91.8,491.8,91.6z"/>
	</g>
</g>
<g>
	<g>
		<path class="st3" d="M502.2,90.3c0-1.1,0.4-1.7,1-1.7s1,0.6,1,1.7c0,1.1-0.4,1.7-1,1.7S502.2,91.4,502.2,90.3z M503.9,90.3
			c0-0.9-0.3-1.3-0.6-1.3s-0.6,0.4-0.6,1.3c0,1,0.3,1.4,0.6,1.4S503.9,91.3,503.9,90.3z"/>
		<path class="st3" d="M504.9,91.7c0-0.2,0.1-0.3,0.3-0.3c0.2,0,0.3,0.1,0.3,0.3s-0.1,0.3-0.3,0.3S504.9,91.9,504.9,91.7z"/>
		<path class="st3" d="M506.2,91.6h0.7v-2.4h-0.6V89c0.3-0.1,0.5-0.1,0.7-0.2h0.3v2.9h0.7V92h-1.8L506.2,91.6L506.2,91.6z"/>
	</g>
</g>
<line class="st7" x1="357.7" y1="87" x2="373.3" y2="87"/>
<line class="st7" x1="404.3" y1="73.8" x2="388.8" y2="73.8"/>
<line class="st7" x1="419.8" y1="79.5" x2="404.3" y2="79.5"/>
<line class="st7" x1="419.8" y1="84.9" x2="435.3" y2="84.9"/>
<line class="st7" x1="466.4" y1="59.5" x2="481.9" y2="59.5"/>
<line class="st7" x1="481.9" y1="77.5" x2="497.4" y2="77.5"/>
<line class="st7" x1="497.4" y1="80.8" x2="512.9" y2="80.8"/>
<line class="st7" x1="466.4" y1="82.8" x2="450.9" y2="82.8"/>
<line class="st7" x1="435.3" y1="80.5" x2="450.9" y2="80.5"/>
<line class="st7" x1="388.8" y1="82.8" x2="373.3" y2="82.8"/>
<g>
	<g>
		<line class="st13" x1="352.5" y1="81.3" x2="354" y2="81.3"/>
		<line class="st14" x1="357" y1="81.3" x2="519.1" y2="81.3"/>
		<line class="st13" x1="520.6" y1="81.3" x2="522.1" y2="81.3"/>
	</g>
</g>
<line class="st7" x1="145.9" y1="1.2" x2="145.9" y2="11.4"/>
<line class="st7" x1="454.4" y1="2.2" x2="454.4" y2="11.4"/>
<rect x="248.4" y="35.6" class="st15" width="112.7" height="8.8"/>
<text transform="matrix(1 0 0 1 248.3951 43.4221)" class="st3 st4 st16">Semi-supervised tuning</text>
<line class="st7" x1="145.9" y1="11.4" x2="454.4" y2="11.4"/>
<g>
	<g>
		<path class="st17" d="M284.9,104.4c0.6-0.9,7.5-10.9,20.1-10.9c0.7,0,7.5,0.1,13.8,4.5"/>
		<g>
			<path class="st3" d="M325.2,104.4c-4.1-1.9-9.8-3.6-14.1-3.9l6.8-3.3l3.2-6.9C321.4,94.7,323.2,100.3,325.2,104.4z"/>
		</g>
	</g>
</g>
<g>
	<g>
		<path class="st17" d="M324.2,109.7c-0.6,0.8-7.5,10.8-20.2,10.8c-0.7,0-7.5-0.1-13.8-4.4"/>
		<g>
			<path class="st3" d="M283.7,109.7c4.2,1.8,9.8,3.6,14.2,3.8l-6.8,3.3l-3.1,6.9C287.6,119.4,285.7,113.8,283.7,109.7z"/>
		</g>
	</g>
</g>
<rect x="281.5" y="78.5" class="st15" width="51" height="12.5"/>
<text transform="matrix(1 0 0 1 281.5 87.0195)" class="st3 st4 st18">FDR, GAP</text>
<rect x="292" y="124.7" class="st15" width="32" height="12.5"/>
<text transform="matrix(1 0 0 1 291.9848 133.2092)" class="st3 st4 st18">Peaks</text>
<rect x="75" y="83" class="st15" width="194.5" height="44"/>
<text transform="matrix(1 0 0 1 75 91.5195)" class="st3 st4 st18">1. For all FDR, GAP compute peaks</text>
<text transform="matrix(1 0 0 1 75 105.9195)" class="st3 st4 st18">2. Use labels markup estimate error</text>
<text transform="matrix(1 0 0 1 75 120.3195)" class="st3 st4 st18">3. Pick parameters minimizing error</text>
<line class="st12" x1="66.4" y1="48.4" x2="551.5" y2="48.6"/>
<rect x="312" y="173.2" class="st15" width="90.8" height="7.2"/>
</svg>
